<svg width="169" height="186" viewBox="0 0 169 186" fill="none" xmlns="http://www.w3.org/2000/svg">
<circle cx="84.41" cy="101.35" r="82.91" fill="white"/>
<circle cx="84.41" cy="101.35" r="83.41" stroke="white"/>
<path d="M84.41 18.44C130.2 18.44 167.32 55.5601 167.32 101.35C167.32 147.14 130.2 184.26 84.41 184.26C38.6201 184.26 1.5 147.14 1.5 101.35C1.5 55.5601 38.6201 18.44 84.41 18.44Z" fill="#E7F8F3"/>
<mask id="mask0_24_1052" style="mask-type:luminance" maskUnits="userSpaceOnUse" x="1" y="18" width="167" height="167">
<path fill-rule="evenodd" clip-rule="evenodd" d="M84.41 18.44C130.2 18.44 167.32 55.5601 167.32 101.35C167.32 147.14 130.2 184.26 84.41 184.26C38.6201 184.26 1.5 147.14 1.5 101.35C1.5 55.5601 38.6201 18.44 84.41 18.44Z" fill="white"/>
</mask>
<g mask="url(#mask0_24_1052)">
<circle opacity="0.14" cx="125.445" cy="170.229" r="66.328" fill="white" stroke="white" stroke-width="24"/>
<circle opacity="0.14" cx="38.071" cy="36.936" r="33.802" fill="white"/>
<path opacity="0.31" d="M-28.854 44.77C3.17602 63.6114 20.192 90.5113 22.194 125.47L22.25 126.531C23.471 152.01 31.325 170.112 46.626 184.146C48.1967 185.587 49.844 186.987 51.568 188.346L52.615 189.161C53.6717 189.972 54.7604 190.772 55.881 191.561L57.013 192.346L58.168 193.124C59.3347 193.899 60.5367 194.666 61.774 195.424L63.025 196.18L63.66 196.556L64.949 197.304L65.603 197.677L66.931 198.419L67.605 198.788L68.974 199.524L70.374 200.257L71.083 200.622L72.521 201.35L73.988 202.076L74.733 202.438L76.245 203.161L77.787 203.882L79.36 204.602L80.16 204.961L81.78 205.679L83.431 206.397L85.115 207.115L85.969 207.474L87.703 208.192L89.47 208.911L91.27 209.631L93.107 210.352L94.979 211.075L95.928 211.437L97.854 212.163L99.817 212.892L101.817 213.624L103.854 214.359L104.887 214.728L106.987 215.468L109.121 216.212L110.203 216.586L109.788 217.792L107.624 217.042L105.499 216.296L103.413 215.554L101.365 214.815L99.355 214.08L97.382 213.347L95.446 212.617L93.546 211.889L91.682 211.163L89.853 210.438L88.953 210.076L87.175 209.353L85.431 208.63L83.72 207.908L82.877 207.547L81.215 206.824L80.396 206.462L78.782 205.738L77.199 205.013L76.419 204.65L74.882 203.923C74.3747 203.68 73.8724 203.437 73.375 203.194L71.898 202.462C71.4107 202.218 70.9277 201.973 70.449 201.728L69.029 200.991L68.329 200.621L66.95 199.879L65.598 199.133L64.932 198.758L63.62 198.005C63.1867 197.753 62.758 197.501 62.334 197.248L61.073 196.485C60.0324 195.848 59.017 195.204 58.027 194.554L56.837 193.77L56.257 193.376L55.114 192.583L53.993 191.783C53.0684 191.116 52.1657 190.438 51.285 189.749L50.238 188.921L49.722 188.504L48.704 187.663C47.696 186.818 46.7154 185.958 45.762 185.083C30.388 170.983 22.402 152.829 21.021 127.507L20.974 126.589C19.3134 91.923 2.80669 65.2054 -28.546 46.436L-29.501 45.87L-28.854 44.77Z" fill="#009244"/>
<path opacity="0.31" d="M-39.0581 44.77C-7.02808 63.6114 9.98792 90.5113 11.9899 125.47L12.0459 126.531C13.2669 152.01 21.1209 170.112 36.4219 184.146C37.9926 185.587 39.6399 186.987 41.3639 188.346L42.4109 189.161C43.4676 189.972 44.5563 190.772 45.6769 191.561L46.8089 192.346L47.9639 193.124C49.1306 193.899 50.3326 194.666 51.5699 195.424L52.8209 196.18L53.4559 196.556L54.7449 197.304L55.3989 197.677L56.7269 198.419L57.4009 198.788L58.7699 199.524L60.1699 200.257L60.8789 200.622L62.3169 201.35L63.7839 202.076L64.5289 202.438L66.0409 203.161L67.5829 203.882L69.1559 204.602L69.9559 204.961L71.5759 205.679L73.2269 206.397L74.9109 207.115L75.7649 207.474L77.4989 208.192L79.2659 208.911L81.0659 209.631L82.9029 210.352L84.7749 211.075L85.7239 211.437L87.6499 212.163L89.6129 212.892L91.6129 213.624L93.6499 214.359L94.6829 214.728L96.7829 215.468L98.9169 216.212L99.9989 216.586L99.5839 217.792L97.4199 217.042L95.2949 216.296L93.2089 215.554L91.1609 214.815L89.1509 214.08L87.1779 213.347L85.2419 212.617L83.3419 211.889L81.4779 211.163L79.6489 210.438L78.7489 210.076L76.9709 209.353L75.2269 208.63L73.5159 207.908L72.6729 207.547L71.0109 206.824L70.1919 206.462L68.5779 205.738L66.9949 205.013L66.2149 204.65L64.6779 203.923C64.1706 203.68 63.6683 203.437 63.1709 203.194L61.6939 202.462C61.2066 202.218 60.7236 201.973 60.2449 201.728L58.8249 200.991L58.1249 200.621L56.7459 199.879L55.3939 199.133L54.7279 198.758L53.4159 198.005C52.9826 197.753 52.5539 197.501 52.1299 197.248L50.8689 196.485C49.8283 195.848 48.8129 195.204 47.8229 194.554L46.6329 193.77L46.0529 193.376L44.9099 192.583L43.7889 191.783C42.8643 191.116 41.9616 190.438 41.0809 189.749L40.0339 188.921L39.5179 188.504L38.4999 187.663C37.4919 186.818 36.5113 185.958 35.5579 185.083C20.1839 170.983 12.1979 152.829 10.8169 127.507L10.7699 126.589C9.10925 91.923 -7.39741 65.2054 -38.7501 46.436L-39.7051 45.87L-39.0581 44.77Z" fill="#009244"/>
</g>
<path d="M84.028 156.118C70.493 143.58 65.603 111.874 65.603 111.874L97.279 62.58C97.279 62.58 108.126 73.891 112.779 82.385C120.166 95.858 126.661 115.329 127.386 125.458C128.786 145.05 130.553 157.512 134.886 167.122C125.571 174.292 114.831 179.39 103.386 182.075C99.094 174.517 92.12 163.613 84.028 156.118Z" fill="white"/>
<rect x="50.188" y="10.787" width="63.777" height="119.901" rx="6.244" fill="#E8ECF0"/>
<rect x="52.739" y="13.338" width="58.675" height="114.799" rx="6.244" fill="#009244"/>
<rect opacity="0.44" x="60.3931" y="64.359" width="43.368" height="11.48" rx="2" fill="white"/>
<circle opacity="0.44" cx="82.0769" cy="43.951" r="11.48" fill="white"/>
<path d="M104.641 111.432C95.8269 95.755 89.3329 93.687 89.3329 93.687C89.3329 93.687 83.7889 96.723 86.8479 105.362C89.9069 114.001 97.7479 121.108 97.7479 133.985C97.7479 146.862 92.0699 152.047 104.648 162.563C117.226 173.079 120.567 127.652 120.567 127.652C120.567 127.652 113.458 127.108 104.641 111.432Z" fill="#009244"/>
<path d="M113.281 110.971C113.281 110.971 114.952 125.615 106.134 109.938C97.3161 94.261 90.8261 92.194 90.8261 92.194C90.8261 92.194 85.2821 95.23 88.3411 103.869C91.4001 112.508 99.2411 119.615 99.2411 132.492C99.2411 145.369 92.6891 152.57 105.265 163.086C117.841 173.602 122.065 126.159 122.065 126.159L113.281 110.971Z" fill="white"/>
<path d="M90.825 92.194C90.825 92.194 89.842 94.54 92.75 97.743C94.2394 99.5913 96.8368 100.111 98.923 98.979C97.538 97.3314 96.0465 95.7764 94.458 94.324C93.3785 93.4103 92.1495 92.6897 90.825 92.194Z" fill="#009244"/>
<path d="M110.097 119.894L106.189 120.974" stroke="#F68E21" stroke-width="0.78" stroke-linecap="round"/>
<path d="M112.24 120.434L111.29 122.85" stroke="#F68E21" stroke-width="0.78" stroke-linecap="round"/>
<circle cx="113.29" cy="24" r="24" fill="#009244"/>
<rect x="102.289" y="18.436" width="20.87" height="20.87" rx="9.739" fill="white"/>
<circle cx="112.724" cy="26.784" r="2.783" fill="#009244"/>
<rect x="111.611" y="28.175" width="2.226" height="5.565" rx="1.113" fill="#009244"/>
<path d="M105.767 27.479V14.958C105.775 11.5231 108.288 8.60794 111.685 8.09426C115.081 7.58057 118.344 9.6221 119.367 12.901" stroke="white" stroke-width="2.226" stroke-linecap="round"/>
<path d="M122.622 15.37L125.28 13.949" stroke="white" stroke-width="1.948" stroke-linecap="round"/>
<path d="M123.495 19.388L126.474 19.878" stroke="white" stroke-width="1.948" stroke-linecap="round"/>
</svg>
